<?xml version="1.0" encoding="utf-8"?>
<!-- Generator: Adobe Illustrator 24.3.0, SVG Export Plug-In . SVG Version: 6.00 Build 0)  -->
<svg version="1.1" id="Layer_1" xmlns="http://www.w3.org/2000/svg" xmlns:xlink="http://www.w3.org/1999/xlink" x="0px" y="0px"
	 viewBox="0 0 256 256" style="enable-background:new 0 0 256 256;" xml:space="preserve">
<style type="text/css">
	.st0{fill:#F2F2F2;}
	.st1{fill:#CCCCCC;}
</style>
<g>
	<path class="st0" d="M40,123.2v53.5c0,7.2,5.8,13,13,13H203c7.2,0,13-5.8,13-13v-53.5c0-0.5-0.5-0.8-0.9-0.7l-86.4,26.2
		c-0.1,0-0.3,0-0.4,0l-87.4-26.2C40.5,122.3,40,122.7,40,123.2z"/>
	<path class="st0" d="M203,71.8H53c-7.2,0-13,5.8-13,13v17.7c0,0.3,0.2,0.6,0.5,0.7l87.8,24.7c0.1,0,0.3,0,0.4,0l86.8-24.7
		c0.3-0.1,0.5-0.4,0.5-0.7V84.8C216,77.6,210.2,71.8,203,71.8z"/>
</g>
<g>
	<path class="st1" d="M61.4,163.9V163v-34.3l-20.5-6.2c-0.5-0.1-0.9,0.2-0.9,0.7v53.5c0,7.2,5.8,13,13,13h34.2
		C72.9,189.6,61.4,178.1,61.4,163.9z"/>
	<path class="st1" d="M61.4,102.5v-4.9l0,0c0-14.2,11.5-25.7,25.7-25.7H53c-7.2,0-13,5.8-13,13v17.7c0,0.3,0.2,0.6,0.5,0.7l20.9,5.9
		V102.5z"/>
</g>
</svg>
