<?xml version="1.0" encoding="utf-8"?>
<!-- Generator: Adobe Illustrator 24.3.0, SVG Export Plug-In . SVG Version: 6.00 Build 0)  -->
<svg version="1.1" id="Layer_1" xmlns="http://www.w3.org/2000/svg" xmlns:xlink="http://www.w3.org/1999/xlink" x="0px" y="0px"
	 viewBox="0 0 256 256" style="enable-background:new 0 0 256 256;" xml:space="preserve">
<style type="text/css">
	.st0{fill:#CCCCCC;}
	.st1{fill:#F2F2F2;}
</style>
<g>
	<path class="st0" d="M86.55,162.3c0,0,17.61-2.46,17.61-11.97s-2.76-17.03-2.76-17.03H128v39.89l-41.45-7.98V162.3z"/>
	<path class="st1" d="M169.45,162.3c0,0-17.61-2.46-17.61-11.97s2.76-17.03,2.76-17.03H128v39.89l41.45-7.98V162.3z"/>
</g>
<g>
	<path class="st0" d="M128,162.3H87.06c-12.87,0-24.59,5.15-33.23,13.48C69.31,199.96,96.38,216,127.22,216
		c0.26,0,0.52-0.02,0.78-0.02V162.3z"/>
	<path class="st1" d="M201.21,174.85c-8.53-7.79-19.87-12.56-32.26-12.56H128v53.68C158.91,215.71,185.97,199.34,201.21,174.85z"/>
</g>
<path class="st0" d="M151.92,147.65c0.43-8.2,2.68-14.35,2.68-14.35H128h-26.6c0,0,2.25,6.15,2.68,14.35
	c6.22,5.13,23.92,19.29,23.92,19.29S131.87,157.54,151.92,147.65z"/>
<g>
	<path class="st0" d="M128,150.78c0,0-20.98-7.67-25.9-12.89S86.89,107.21,86.58,91.4s2.85-31.46,8.56-37.59s17.59-11.81,19.5-12.43
		C116.53,40.77,128,40,128,40V150.78z"/>
	<path class="st1" d="M128,150.78c0,0,20.98-7.67,25.9-12.89s15.22-30.69,15.53-46.49s-2.85-31.46-8.56-37.59
		s-17.59-11.81-19.5-12.43C139.48,40.77,128,40,128,40V150.78z"/>
</g>
</svg>
