<?xml version="1.0" encoding="utf-8"?>
<!-- Generator: Adobe Illustrator 24.3.0, SVG Export Plug-In . SVG Version: 6.00 Build 0)  -->
<svg version="1.1" id="Layer_1" xmlns="http://www.w3.org/2000/svg" xmlns:xlink="http://www.w3.org/1999/xlink" x="0px" y="0px"
	 viewBox="0 0 520 520" style="enable-background:new 0 0 520 520;" xml:space="preserve">
<style type="text/css">
	.st0{fill:#333333;}
	.st1{fill:#C54800;}
	.st2{fill:#FF6A38;}
	.st3{fill:none;stroke:#F2F2F2;stroke-miterlimit:10;}
</style>
<g>
	<path class="st0" d="M260,98.1c-89.8,0-162.6,72.8-162.6,162.6S170.2,423.3,260,423.3s162.6-72.8,162.6-162.6S349.8,98.1,260,98.1z
		 M260,385.3c-68.8,0-124.6-55.8-124.6-124.6S191.2,136.2,260,136.2s124.6,55.8,124.6,124.6S328.8,385.3,260,385.3z"/>
	<g>
		<path class="st1" d="M260,43.4c0.4,0,0.8,0.2,1.1,0.5c3.2,3.8,13.3,14.7,32.3,23.3c0.6,0.3,1,1,0.7,1.7
			c-11.3,33.1-27.9,160.4-32.7,198.6c-0.1,0.8-0.8,1.2-1.4,1.2V43.4z"/>
		<path class="st2" d="M260,43.4c-0.4,0-0.8,0.2-1.1,0.5c-3.2,3.8-13.3,14.7-32.3,23.3c-0.6,0.3-1,1-0.7,1.7
			c11.3,33.1,27.9,160.4,32.7,198.6c0.1,0.8,0.8,1.2,1.4,1.2V43.4z"/>
	</g>
	<g>
		<path class="st1" d="M174.4,89.8c0.3-0.1,0.7-0.1,1,0.1c3.7,2.1,14.9,7.9,32.7,9.2c0.6,0,1.1,0.5,1.1,1.1
			c0.6,29.8,23.8,105.6,31.1,137.6c0.2,0.7-0.2,1.2-0.8,1.4L174.4,89.8z"/>
		<path class="st2" d="M174.4,89.8c-0.3,0.1-0.6,0.4-0.7,0.7c-1.4,4-6.3,15.6-19.1,28.1c-0.4,0.4-0.5,1.1-0.1,1.6
			c18.7,23.2,68.5,89.3,83.5,118.5c0.3,0.6,1,0.8,1.5,0.6L174.4,89.8z"/>
	</g>
	<g>
		<path class="st1" d="M260,462c-0.4,0-0.8-0.2-1.1-0.5c-3.2-3.8-8.1-14.7-20.3-23.3c-0.4-0.3-0.6-1-0.5-1.7
			c7.2-33.1,15.6-88.8,20.5-127.1c0.1-0.8,0.8-1.2,1.4-1.2V462z"/>
		<path class="st2" d="M260,462c0.4,0,0.8-0.2,1.1-0.5c3.2-3.8,8.1-14.7,20.3-23.3c0.4-0.3,0.6-1,0.5-1.7
			c-7.2-33.1-15.6-88.8-20.5-127.1c-0.1-0.8-0.8-1.2-1.4-1.2V462z"/>
	</g>
	<g>
		<path class="st1" d="M345.6,89.8c0.3,0.1,0.6,0.4,0.7,0.7c1.4,4,6.3,15.6,19.1,28.1c0.4,0.4,0.5,1.1,0.1,1.6
			c-18.7,23.2-68.5,89.3-83.5,118.5c-0.3,0.6-1,0.8-1.5,0.6L345.6,89.8z"/>
		<path class="st2" d="M345.6,89.8c-0.3-0.1-0.7-0.1-1,0.1c-3.7,2.1-14.9,7.9-32.7,9.2c-0.6,0-1.1,0.5-1.1,1.1
			c-0.6,29.8-23.8,105.6-31.1,137.6c-0.2,0.7,0.2,1.2,0.8,1.4L345.6,89.8z"/>
	</g>
</g>
<path class="st3" d="M422.6,260.7c0-53.3-25.6-100.6-65.2-130.2c3.1-4,5.9-7.5,8.1-10.3c0.4-0.5,0.3-1.1-0.1-1.6
	c-12.7-12.4-17.7-24.1-19.1-28.1c-0.1-0.4-0.4-0.6-0.7-0.7c-0.3-0.1-0.7-0.1-1,0.1c-3.7,2.1-14.9,7.9-32.7,9.2
	c-0.6,0-1.1,0.5-1.1,1.1c0,1.8-0.2,3.7-0.3,5.8c-7.7-2.5-15.7-4.5-23.9-5.8c2.7-13.5,5.3-24.5,7.6-31.4c0.2-0.7-0.1-1.4-0.7-1.7
	c-19-8.6-29.1-19.4-32.3-23.3c-0.3-0.4-0.7-0.5-1.1-0.5s-0.8,0.2-1.1,0.5c-3.2,3.8-13.3,14.7-32.3,23.3c-0.6,0.3-1,1-0.7,1.7
	c2.4,6.9,4.9,17.9,7.6,31.4c-8.2,1.3-16.2,3.3-23.9,5.8c-0.2-2.1-0.3-4.1-0.3-5.8c0-0.6-0.5-1.1-1.1-1.1c-17.8-1.3-29-7.1-32.7-9.2
	c-0.3-0.2-0.7-0.2-1-0.1c-0.3,0.1-0.6,0.4-0.7,0.7c-1.4,4-6.3,15.6-19.1,28.1c-0.4,0.4-0.5,1.1-0.1,1.6c2.3,2.8,5,6.3,8.1,10.3
	c-39.6,29.7-65.2,77-65.2,130.2c0,83.4,62.8,152.1,143.7,161.5c-1,5.1-2,9.9-2.9,14.3c-0.1,0.7,0.1,1.4,0.5,1.7
	c12.2,8.6,17.1,19.4,20.3,23.3c0.3,0.4,0.7,0.5,1.1,0.5s0.8-0.2,1.1-0.5c3.2-3.8,8.1-14.7,20.3-23.3c0.4-0.3,0.6-1,0.5-1.7
	c-1-4.4-1.9-9.2-2.9-14.3C359.8,412.9,422.6,344.1,422.6,260.7z M272.3,384.7c-4.2-25.8-8.1-53.3-10.9-75.2
	c-0.1-0.8-0.8-1.2-1.4-1.2s-1.3,0.4-1.4,1.2c-2.8,21.9-6.7,49.4-10.9,75.2c-63-6.2-112.2-59.3-112.2-123.9
	c0-40.9,19.7-77.2,50.2-99.9c20.4,27.5,43,59.8,52.4,77.9c0.3,0.6,1,0.8,1.5,0.6c0.5-0.2,0.9-0.7,0.8-1.4
	c-4.7-21-16.3-60.6-23.9-93.8c7.6-2.8,15.6-5,23.8-6.3c7.9,48.4,15.4,106.1,18.5,129.7c0.1,0.8,0.8,1.2,1.4,1.2s1.3-0.4,1.4-1.2
	c3-23.6,10.5-81.3,18.5-129.7c8.2,1.3,16.2,3.4,23.8,6.3c-7.6,33.3-19.2,72.9-23.9,93.8c-0.2,0.7,0.2,1.2,0.8,1.4
	c0.5,0.2,1.2,0,1.5-0.6c9.3-18.1,32-50.4,52.4-77.9c30.5,22.7,50.2,59,50.2,99.9C384.6,325.4,335.3,378.5,272.3,384.7z"/>
</svg>
