<?xml version="1.0" encoding="utf-8"?>
<!-- Generator: Adobe Illustrator 24.3.0, SVG Export Plug-In . SVG Version: 6.00 Build 0)  -->
<svg version="1.1" id="Layer_1" xmlns="http://www.w3.org/2000/svg" xmlns:xlink="http://www.w3.org/1999/xlink" x="0px" y="0px"
	 viewBox="0 0 520 520" style="enable-background:new 0 0 520 520;" xml:space="preserve">
<style type="text/css">
	.st0{fill:#333333;}
	.st1{fill:#C54800;}
	.st2{fill:#FF6A38;}
</style>
<g>
	<path class="st0" d="M260,84.4c-97.8,0-177,79.3-177,177s79.3,177,177,177s177-79.3,177-177S357.8,84.4,260,84.4z M260,397
		c-74.9,0-135.6-60.7-135.6-135.6S185.1,125.9,260,125.9s135.6,60.7,135.6,135.6S334.9,397,260,397z"/>
	<g>
		<path class="st1" d="M260,24.8c0.4,0,0.9,0.2,1.2,0.6c3.4,4.2,14.4,16,35.2,25.3c0.7,0.3,1.1,1.1,0.8,1.8
			c-12.3,36-30.3,174.6-35.6,216.2c-0.1,0.9-0.8,1.3-1.5,1.3V24.8z"/>
		<path class="st2" d="M260,24.8c-0.4,0-0.9,0.2-1.2,0.6c-3.4,4.2-14.4,16-35.2,25.3c-0.7,0.3-1.1,1.1-0.8,1.8
			c12.3,36,30.3,174.6,35.6,216.2c0.1,0.9,0.8,1.3,1.5,1.3V24.8z"/>
	</g>
	<g>
		<path class="st1" d="M166.8,75.4c0.4-0.1,0.8-0.1,1.1,0.1c4,2.3,16.2,8.6,35.6,10c0.7,0,1.2,0.6,1.2,1.2
			c0.7,32.4,26,114.9,33.8,149.8c0.2,0.8-0.3,1.3-0.8,1.5L166.8,75.4z"/>
		<path class="st2" d="M166.8,75.4c-0.4,0.1-0.7,0.4-0.8,0.8c-1.5,4.3-6.9,17-20.8,30.5c-0.5,0.5-0.5,1.2-0.1,1.7
			c20.3,25.3,74.5,97.2,90.9,129c0.4,0.7,1.1,0.8,1.6,0.6L166.8,75.4z"/>
	</g>
	<g>
		<path class="st1" d="M260,480.5c-0.4,0-0.9-0.2-1.2-0.6c-3.4-4.2-8.8-16-22.1-25.3c-0.4-0.3-0.7-1.1-0.5-1.8
			c7.9-36,16.9-96.7,22.3-138.3c0.1-0.9,0.8-1.3,1.5-1.3V480.5z"/>
		<path class="st2" d="M260,480.5c0.4,0,0.9-0.2,1.2-0.6c3.4-4.2,8.8-16,22.1-25.3c0.4-0.3,0.7-1.1,0.5-1.8
			c-7.9-36-16.9-96.7-22.3-138.3c-0.1-0.9-0.8-1.3-1.5-1.3V480.5z"/>
	</g>
	<g>
		<path class="st1" d="M353.2,75.4c0.4,0.1,0.7,0.4,0.8,0.8c1.5,4.3,6.9,17,20.8,30.5c0.5,0.5,0.5,1.2,0.1,1.7
			c-20.3,25.3-74.5,97.2-90.9,129c-0.4,0.7-1.1,0.8-1.6,0.6L353.2,75.4z"/>
		<path class="st2" d="M353.2,75.4c-0.4-0.1-0.8-0.1-1.1,0.1c-4,2.3-16.2,8.6-35.6,10c-0.7,0-1.2,0.6-1.2,1.2
			c-0.7,32.4-26,114.9-33.8,149.8c-0.2,0.8,0.3,1.3,0.8,1.5L353.2,75.4z"/>
	</g>
</g>
</svg>
